<?xml version="1.0" encoding="utf-8"?>
<!-- Generator: Adobe Illustrator 22.1.0, SVG Export Plug-In . SVG Version: 6.00 Build 0)  -->
<svg version="1.1" id="Layer_1" xmlns="http://www.w3.org/2000/svg" xmlns:xlink="http://www.w3.org/1999/xlink" x="0px" y="0px"
	 viewBox="0 0 283.5 283.5" style="enable-background:new 0 0 283.5 283.5;" xml:space="preserve">
<style type="text/css">
	.st0{fill:#007200;}
</style>
<g>
	
		<ellipse transform="matrix(0.9732 -0.2298 0.2298 0.9732 -59.8048 12.7617)" class="st0" cx="24.9" cy="263.2" rx="18.4" ry="18.4"/>
	<path class="st0" d="M105.6,170.6c0,9,2.9,14.2,11.4,14.2c1.2,0,2.7-0.2,4.1-0.6v-54.6h-15.5V170.6z"/>
	<path class="st0" d="M280.7,74.1c0-36.8-29.9-66.7-66.7-66.7c-32.8,0-60.1,23.7-65.6,54.9H43.3v27.2C19.2,94.1,1,115.3,1,140.8
		c0,25.5,18.2,46.7,42.3,51.3v52.6h134.4c5,15.3,19.4,26.4,36.3,26.4c21.1,0,38.2-17.1,38.2-38.2c0-17-11.1-31.4-26.5-36.4v-56.8
		C257,134.2,280.7,106.9,280.7,74.1z M127.5,88c4.9,0,8.6,3.2,8.6,8.1c0,4.7-3.8,8.1-8.6,8.1s-8.6-3.3-8.6-8.1
		C118.9,91.2,122.7,88,127.5,88z M166.5,195c-15.7-0.1-28.4-9.1-32.9-25.1v31.6c0,15.1-5.5,24.6-20.2,24.6c-4.4-0.1-8.2-1-10.8-2
		l2.4-9.5c1.9,0.6,4.4,1.3,7,1.3c7.4,0,9.1-5.5,9.1-14.5v-7.3c-2.3,0.5-4.7,0.8-7,0.8c-15.6,0-20.9-9.9-20.9-24.6v-40.8h-11v-9.4
		l11.5-0.7l1.5-20.7h10.4v20.7h20v0h8v23.7c4.8-16.4,18.5-25.6,33.7-25.6c9.7,0,16.4,4,21.6,8.7l-6.4,8.2c-4.3-3.9-8.8-6.5-14.6-6.5
		c-13.3,0-23.1,11.5-23.1,28.4c0,16.9,9.2,28.2,22.8,28.2c6.7,0,12.7-3.3,17.3-7.3l5.4,8.4C183.7,191.5,175.3,195,166.5,195z"/>
</g>
</svg>
